<svg width="24" height="24" viewBox="0 0 24 24" fill="none" xmlns="http://www.w3.org/2000/svg">
<g clip-path="url(#clip0_1_2222)">
<g filter="url(#filter0_d_1_2222)">
<path d="M12 5.5999C10.8956 5.5999 9.99999 6.4951 9.99999 7.5999C9.99999 8.7047 10.8956 9.5999 12 9.5999C13.1048 9.5999 14 8.7047 14 7.5999C14 6.4951 13.1048 5.5999 12 5.5999ZM10.4 17.5999C10.4 18.0415 10.7584 18.3999 11.2 18.3999H12.8C13.2416 18.3999 13.6 18.0415 13.6 17.5999V11.9999C13.6 11.5583 13.2416 11.1999 12.8 11.1999H11.2C10.7584 11.1999 10.4 11.5583 10.4 11.9999V17.5999ZM12 21.5999C6.69799 21.5999 2.39999 17.3019 2.39999 11.9999C2.39999 6.6979 6.69799 2.3999 12 2.3999C17.302 2.3999 21.6 6.6979 21.6 11.9999C21.6 17.3019 17.302 21.5999 12 21.5999Z" fill="url(#paint0_linear_1_2222)"/>
</g>
</g>
<defs>
<filter id="filter0_d_1_2222" x="-17.6" y="-13.6001" width="59.2" height="59.2" filterUnits="userSpaceOnUse" color-interpolation-filters="sRGB">
<feFlood flood-opacity="0" result="BackgroundImageFix"/>
<feColorMatrix in="SourceAlpha" type="matrix" values="0 0 0 0 0 0 0 0 0 0 0 0 0 0 0 0 0 0 127 0" result="hardAlpha"/>
<feOffset dy="4"/>
<feGaussianBlur stdDeviation="10"/>
<feComposite in2="hardAlpha" operator="out"/>
<feColorMatrix type="matrix" values="0 0 0 0 0 0 0 0 0 0 0 0 0 0 0 0 0 0 0.05 0"/>
<feBlend mode="normal" in2="BackgroundImageFix" result="effect1_dropShadow_1_2222"/>
<feBlend mode="normal" in="SourceGraphic" in2="effect1_dropShadow_1_2222" result="shape"/>
</filter>
<linearGradient id="paint0_linear_1_2222" x1="2.39999" y1="11.9999" x2="21.6" y2="11.9999" gradientUnits="userSpaceOnUse">
<stop stop-color="#0909E9"/>
<stop offset="1" stop-color="#00D4FF"/>
</linearGradient>
<clipPath id="clip0_1_2222">
<rect width="24" height="24" fill="white"/>
</clipPath>
</defs>
</svg>
