<svg width="14" height="13" viewBox="0 0 14 13" fill="none" xmlns="http://www.w3.org/2000/svg">
<path d="M13.7239 0.389362C13.7183 0.353242 13.705 0.318764 13.6848 0.288335C13.6646 0.257906 13.6379 0.232259 13.6068 0.213186C13.5756 0.194112 13.5406 0.182072 13.5043 0.177906C13.468 0.173741 13.4313 0.177549 13.3966 0.189067L0.157984 5.03538C0.11322 5.05265 0.0744607 5.0826 0.0464464 5.12156C0.0184321 5.16051 0.00237681 5.20679 0.00024406 5.25472C-0.00188869 5.30265 0.00999347 5.35017 0.0344375 5.39146C0.0588815 5.43275 0.0948279 5.46602 0.137881 5.48721L4.12123 7.36365L5.27397 11.678C5.28676 11.7209 5.31051 11.7597 5.34288 11.7906C5.37526 11.8215 5.41513 11.8434 5.45857 11.8542C5.50256 11.8622 5.54784 11.8587 5.59008 11.8441C5.63233 11.8295 5.67011 11.8043 5.69981 11.7709L7.50516 9.58799L10.8018 12.031C10.8347 12.0554 10.8731 12.0712 10.9136 12.077C10.9541 12.0827 10.9954 12.0782 11.0338 12.0639C11.0721 12.0496 11.1063 12.0259 11.1331 11.9951C11.1599 11.9642 11.1786 11.927 11.1875 11.8871C11.1911 11.8042 13.7494 0.468794 13.7239 0.389362ZM6.07245 8.19033C6.04899 8.2249 6.02966 8.26209 6.01484 8.30114L5.49216 10.5944L4.60861 7.28839L11.6138 2.10572L6.07245 8.19033ZM11.9666 1.23467L4.30044 6.90619L0.878017 5.29377L11.9666 1.23467ZM5.97905 10.6642L6.40955 8.77602L7.11095 9.29576L5.97905 10.6642ZM10.7905 11.412L6.61793 8.32027L13.0421 1.26532L10.7905 11.412Z" fill="black"/>
<path d="M0.402345 8.71966L1.939 7.39286C1.98631 7.34984 2.01494 7.29005 2.01879 7.22622C2.02264 7.1624 2.0014 7.09959 1.9596 7.05121C1.9178 7.00282 1.85875 6.97268 1.79504 6.96721C1.73134 6.96174 1.66801 6.98138 1.61858 7.02193L0.0821667 8.34874C0.0356312 8.39193 0.00766663 8.45149 0.00415893 8.51488C0.000651231 8.57828 0.0218739 8.64056 0.0633602 8.68862C0.104846 8.73668 0.16336 8.76677 0.226586 8.77256C0.289812 8.77835 0.352819 8.75939 0.402345 8.71966ZM3.77647 8.01826C3.75457 7.99463 3.72823 7.97555 3.69895 7.9621C3.66967 7.94866 3.63803 7.94112 3.60584 7.93991C3.57364 7.93871 3.54153 7.94386 3.51132 7.95507C3.48112 7.96629 3.45342 7.98334 3.42982 8.00527L0.187095 11.0148C0.163496 11.0368 0.144447 11.0631 0.131034 11.0924C0.117622 11.1217 0.11011 11.1533 0.108926 11.1855C0.107742 11.2177 0.11291 11.2498 0.124135 11.28C0.13536 11.3102 0.152422 11.3379 0.174347 11.3615C0.196271 11.3851 0.222629 11.4041 0.251916 11.4176C0.281202 11.431 0.312844 11.4385 0.345034 11.4397C0.377224 11.4409 0.409332 11.4357 0.439524 11.4245C0.469717 11.4132 0.497403 11.3962 0.521002 11.3742L3.76348 8.36467C3.81113 8.32045 3.83927 8.25912 3.8417 8.19416C3.84414 8.1292 3.82068 8.06593 3.77647 8.01826ZM4.16162 10.8525L3.52371 11.4449L2.82501 12.0933C2.78976 12.1272 2.76536 12.1707 2.7549 12.2185C2.74443 12.2662 2.74838 12.316 2.76623 12.3615C2.78409 12.407 2.81505 12.4462 2.85519 12.4741C2.89533 12.502 2.94285 12.5173 2.99172 12.5182C3.05366 12.5183 3.11334 12.4949 3.15867 12.4527L4.49552 11.212C4.54318 11.1677 4.5713 11.1063 4.57369 11.0413C4.57608 10.9763 4.55255 10.913 4.50827 10.8653C4.46399 10.8176 4.4026 10.7895 4.33759 10.7871C4.27257 10.7847 4.20928 10.8083 4.16162 10.8525ZM8.12168 11.2625L7.11579 12.4799C7.07434 12.53 7.05449 12.5945 7.0606 12.6593C7.06671 12.724 7.09829 12.7837 7.14839 12.8251C7.19849 12.8666 7.263 12.8864 7.32774 12.8803C7.39247 12.8742 7.45213 12.8426 7.49358 12.7925L8.49971 11.575C8.54116 11.5249 8.56101 11.4604 8.5549 11.3957C8.54878 11.331 8.5172 11.2713 8.4671 11.2298C8.41701 11.1884 8.3525 11.1685 8.28776 11.1747C8.22303 11.1808 8.16313 11.2124 8.12168 11.2625Z" fill="black"/>
</svg>
